<?xml version="1.0" standalone="no"?>
<!DOCTYPE svg PUBLIC "-//W3C//DTD SVG 20010904//EN"
 "http://www.w3.org/TR/2001/REC-SVG-20010904/DTD/svg10.dtd">
<svg version="1.0" xmlns="http://www.w3.org/2000/svg"
 width="976.000000pt" height="977.000000pt" viewBox="0 0 976.000000 977.000000"
 preserveAspectRatio="xMidYMid meet">

<g transform="translate(0.000000,977.000000) scale(0.100000,-0.100000)"
fill="#000000" stroke="none">
<path d="M4490 9273 c-36 -2 -69 -8 -74 -14 -6 -5 -42 -9 -80 -9 -43 0 -82 -6
-100 -15 -15 -8 -54 -15 -85 -16 -31 0 -78 -4 -106 -9 -97 -17 -160 -31 -180
-40 -11 -5 -42 -12 -69 -15 -27 -4 -58 -10 -70 -15 -11 -4 -55 -18 -96 -30
-144 -43 -369 -120 -424 -145 -30 -14 -59 -25 -65 -25 -5 0 -22 -7 -38 -15
-15 -8 -113 -55 -216 -106 -104 -50 -217 -111 -253 -135 -35 -24 -67 -44 -70
-44 -6 0 -92 -52 -149 -90 -134 -90 -194 -132 -205 -145 -7 -8 -16 -15 -21
-15 -37 0 -390 -314 -574 -511 -142 -152 -335 -386 -335 -405 0 -4 -18 -30
-40 -58 -54 -68 -100 -131 -130 -182 -14 -23 -52 -86 -84 -140 -67 -111 -169
-306 -211 -404 -15 -36 -41 -92 -56 -126 -16 -33 -29 -68 -29 -76 0 -9 -6 -29
-14 -45 -28 -54 -46 -101 -46 -120 0 -10 -7 -27 -15 -37 -8 -11 -15 -31 -15
-45 0 -14 -7 -35 -15 -45 -8 -11 -15 -30 -15 -42 0 -12 -7 -35 -15 -50 -8 -16
-15 -38 -15 -49 0 -12 -5 -26 -11 -32 -6 -6 -13 -39 -16 -74 -4 -35 -12 -73
-19 -84 -7 -11 -18 -45 -24 -75 -27 -130 -41 -210 -50 -285 -6 -44 -15 -96
-21 -115 -7 -22 -13 -200 -16 -465 -6 -513 4 -664 61 -960 8 -44 20 -107 27
-140 6 -33 18 -67 25 -76 8 -8 14 -33 14 -55 0 -22 7 -49 15 -60 8 -10 15 -37
15 -60 0 -22 7 -49 15 -60 8 -10 15 -30 15 -44 0 -14 7 -38 15 -54 8 -15 15
-38 15 -50 0 -12 7 -31 15 -42 8 -10 15 -28 15 -39 0 -11 14 -47 30 -80 16
-33 30 -67 30 -75 0 -8 14 -42 30 -75 16 -33 30 -65 30 -71 0 -34 206 -422
281 -531 16 -23 29 -44 29 -48 0 -3 32 -52 71 -108 65 -94 95 -136 187 -258
155 -206 563 -615 728 -729 12 -8 59 -44 105 -79 129 -100 452 -311 477 -311
4 0 24 -11 45 -25 46 -32 252 -135 269 -135 7 0 53 -20 103 -45 49 -25 97 -45
107 -45 9 0 29 -7 45 -15 54 -27 118 -54 173 -71 30 -9 74 -23 98 -30 23 -8
51 -14 62 -14 10 0 21 -4 25 -9 3 -6 27 -13 53 -16 26 -3 55 -10 64 -15 23
-13 89 -30 163 -42 33 -5 68 -14 77 -19 9 -4 47 -11 85 -15 37 -4 73 -11 80
-16 6 -5 69 -11 140 -14 70 -3 139 -11 152 -17 34 -17 898 -17 932 0 13 6 76
14 139 17 63 3 129 9 145 15 17 6 59 14 95 20 82 12 202 40 390 89 109 29 286
90 356 123 34 16 66 29 72 29 6 0 47 16 89 36 43 19 94 42 113 51 38 16 186
90 266 134 307 165 568 350 854 605 310 276 596 625 828 1011 112 186 342 676
342 727 0 8 3 17 8 19 4 3 18 38 31 79 13 40 28 81 33 92 9 17 17 45 53 171
65 237 99 404 116 580 6 61 14 124 19 140 14 51 35 352 34 495 -3 253 -62 815
-94 885 -5 11 -12 46 -15 77 -4 32 -11 60 -16 63 -5 4 -9 19 -9 34 0 16 -7 51
-15 77 -8 27 -26 88 -40 136 -14 48 -30 90 -36 93 -5 4 -9 19 -9 34 0 15 -7
36 -15 47 -8 10 -15 31 -15 45 0 14 -7 34 -15 45 -8 10 -15 27 -15 37 0 19
-18 66 -46 120 -8 16 -14 35 -14 44 0 8 -6 27 -14 41 -7 15 -58 117 -112 227
-134 271 -279 512 -380 632 -24 28 -44 55 -44 60 -1 9 -136 177 -246 305 -118
136 -411 413 -531 500 -17 13 -67 50 -110 83 -102 78 -263 185 -278 185 -7 0
-19 8 -29 18 -9 10 -42 32 -74 48 -31 16 -68 38 -82 50 -32 28 -399 214 -422
214 -5 0 -39 13 -75 30 -35 16 -76 33 -90 37 -15 3 -38 12 -52 19 -14 8 -31
14 -37 14 -7 0 -25 7 -40 15 -16 8 -39 15 -50 15 -12 0 -35 7 -50 15 -16 8
-36 15 -45 15 -9 0 -30 7 -45 15 -16 8 -40 15 -54 15 -14 1 -36 7 -50 15 -14
8 -43 15 -65 15 -22 0 -49 7 -59 15 -11 9 -42 15 -70 15 -29 0 -59 7 -70 15
-13 10 -44 15 -90 15 -47 1 -78 6 -90 15 -13 10 -44 15 -85 15 -42 1 -73 6
-85 15 -16 12 -57 15 -198 15 -145 0 -183 3 -202 15 -24 16 -32 16 -386 5 -19
-1 -51 0 -70 3 -19 2 -64 2 -100 0z m1042 -702 c226 -33 508 -104 638 -159
l45 -19 -161 5 c-188 5 -323 -8 -479 -48 -123 -31 -195 -61 -305 -125 -97 -57
-227 -163 -209 -170 33 -12 434 -75 539 -84 63 -6 219 -15 345 -21 127 -6 277
-17 335 -24 308 -41 618 -144 884 -292 451 -252 880 -671 1095 -1069 l32 -60
-47 55 c-92 106 -310 317 -419 404 -214 171 -481 335 -706 433 -359 158 -656
220 -1147 243 -386 18 -536 35 -862 100 -353 71 -520 75 -703 16 -43 -13 -77
-21 -77 -17 0 13 70 124 112 179 55 71 184 200 269 269 38 31 68 58 66 60 -6
5 -152 -25 -212 -44 -71 -22 -197 -87 -285 -146 -98 -65 -226 -196 -375 -382
-148 -184 -276 -315 -375 -382 -72 -48 -133 -83 -145 -83 -7 0 38 89 79 153
66 104 67 103 -26 56 -177 -89 -260 -166 -329 -304 -46 -93 -69 -190 -69 -294
l0 -74 54 51 c165 156 431 278 686 313 82 11 89 14 205 91 134 90 340 194 459
232 269 88 619 100 772 25 98 -47 130 -151 121 -388 -14 -338 -126 -571 -351
-726 -31 -21 -56 -41 -56 -45 0 -3 59 -14 132 -24 163 -22 299 -55 426 -102
190 -71 403 -198 522 -312 l65 -63 -65 32 c-137 67 -301 118 -486 149 -182 31
-435 26 -533 -11 -24 -10 -18 -14 94 -68 361 -173 672 -459 929 -853 145 -223
240 -482 261 -713 l6 -70 -36 105 c-40 116 -107 250 -181 361 -60 90 -255 288
-387 393 -493 392 -997 620 -1460 660 -26 2 -46 2 -44 0 2 -2 43 -28 91 -59
325 -204 548 -504 642 -864 33 -128 32 -147 -7 -85 -54 84 -155 208 -216 264
-83 76 -220 164 -313 199 -99 39 -202 63 -247 59 l-34 -3 73 -52 c199 -143
363 -370 481 -668 37 -94 91 -279 85 -295 -2 -5 -34 27 -73 72 -85 99 -183
176 -293 230 -46 22 -85 39 -87 37 -2 -2 23 -39 55 -81 117 -154 178 -285 212
-448 17 -79 19 -122 15 -255 -5 -174 -19 -248 -77 -392 -29 -72 -118 -229
-126 -221 -1 2 4 44 13 93 20 117 13 325 -17 443 -43 175 -144 391 -246 523
-168 219 -493 402 -739 415 l-90 5 30 -22 c159 -120 238 -337 190 -522 -31
-119 -60 -160 -209 -291 -111 -98 -131 -144 -130 -289 0 -123 6 -119 -100 -66
-32 16 -63 29 -67 29 -5 0 -9 -12 -9 -27 0 -92 -108 -214 -233 -267 l-36 -15
-25 42 c-24 40 -111 137 -123 137 -3 0 -3 -20 -1 -45 3 -24 3 -46 1 -49 -3 -3
-32 14 -65 37 -86 61 -161 107 -166 103 -2 -3 15 -30 39 -61 23 -30 39 -59 35
-62 -10 -11 -96 15 -146 44 -148 87 -241 241 -242 403 -1 157 54 237 173 255
67 10 143 -9 309 -76 219 -88 365 -113 505 -84 168 34 274 138 319 312 24 93
21 97 -36 40 -164 -163 -398 -235 -638 -196 -147 23 -467 151 -508 203 -68 88
-82 248 -28 340 30 51 65 77 137 101 54 18 110 69 139 125 22 44 50 142 50
177 0 22 -3 21 -52 -17 -85 -68 -103 -74 -208 -76 -71 -1 -118 -8 -185 -28
-108 -33 -144 -30 -253 17 -42 19 -101 42 -131 52 l-53 17 4 62 c5 86 54 184
166 331 115 153 218 272 393 458 77 81 144 158 150 171 18 39 -7 75 -79 112
-118 60 -150 114 -117 201 14 40 63 94 279 313 143 146 290 295 325 331 l63
67 -65 64 c-113 113 -170 246 -170 393 1 200 94 371 275 507 82 62 188 123
188 109 0 -5 -11 -31 -24 -58 -37 -73 -66 -197 -72 -303 -4 -77 -2 -90 7 -70
112 239 166 318 307 450 165 156 436 314 711 415 126 47 166 54 115 20 -168
-108 -412 -366 -537 -566 -86 -138 -200 -409 -167 -397 42 15 208 170 354 332
96 106 216 232 268 280 243 230 586 386 933 427 123 14 515 2 667 -20z m850
-1451 c829 -69 1720 -812 2081 -1735 168 -432 252 -934 233 -1400 -9 -217 -39
-485 -55 -485 -3 0 -14 56 -23 124 -21 151 -84 400 -131 522 -47 121 -125 274
-187 364 -47 68 -51 72 -46 40 40 -215 57 -595 37 -790 -41 -393 -167 -845
-354 -1270 -67 -154 -129 -282 -133 -278 -1 2 4 30 11 63 35 148 48 314 41
520 -7 201 -18 313 -28 285 -3 -8 -20 -71 -38 -140 -102 -390 -278 -750 -502
-1028 -230 -284 -520 -519 -832 -671 -135 -67 -324 -137 -347 -129 -6 2 11 19
38 38 131 94 332 330 407 479 48 95 46 96 -66 25 -124 -78 -403 -217 -548
-274 -506 -197 -1108 -252 -1648 -149 -224 42 -540 137 -692 208 l-65 30 90
-7 c50 -4 225 -7 390 -6 325 0 430 11 690 69 687 154 1208 417 1587 802 378
384 574 791 619 1288 18 202 16 200 86 55 119 -245 144 -352 152 -655 l6 -220
47 110 c51 121 87 235 120 389 31 139 33 498 4 651 -68 365 -288 767 -543 991
-43 38 -91 79 -108 91 l-30 22 85 -23 c314 -85 592 -280 783 -546 114 -161
255 -468 295 -647 9 -40 20 -73 23 -73 3 0 12 26 18 58 76 363 64 742 -34
1048 -38 118 -146 327 -220 427 -170 228 -400 420 -722 603 -67 38 -118 70
-113 72 20 7 226 -19 345 -43 224 -45 490 -137 743 -255 56 -27 102 -45 102
-41 0 4 -29 58 -65 121 -235 411 -656 766 -1280 1077 -246 123 -431 192 -650
241 l-80 19 73 12 c66 12 207 26 287 29 17 1 83 -3 147 -8z m-1141 -2327 c141
-187 220 -334 290 -541 93 -274 121 -609 74 -897 -43 -265 -130 -478 -287
-702 -43 -61 -178 -221 -188 -222 -3 -1 18 47 47 107 114 232 172 415 197 614
7 59 12 108 11 108 -1 0 -19 -26 -40 -57 -112 -170 -305 -383 -460 -507 -49
-40 -155 -119 -235 -176 -235 -168 -347 -266 -427 -375 -22 -30 -22 -29 2 44
46 137 121 253 347 533 73 90 177 219 233 288 55 69 122 159 147 200 112 179
205 426 259 690 31 145 33 168 33 360 0 222 -10 300 -64 505 -45 169 -44 162
-28 145 7 -8 47 -61 89 -117z m-3641 14 c0 -7 16 -35 35 -64 25 -37 55 -64
112 -99 92 -56 143 -102 184 -165 34 -54 99 -239 99 -284 0 -37 -42 -106 -95
-155 l-37 -35 -58 63 c-113 125 -208 326 -238 507 -18 102 -25 245 -13 245 6
0 11 -6 11 -13z m2168 -1234 c155 -262 224 -491 225 -738 1 -160 -20 -273 -74
-410 -119 -302 -350 -533 -644 -644 -139 -52 -248 -71 -411 -71 -166 0 -270
16 -409 64 -110 37 -179 65 -174 70 2 2 40 -1 84 -6 160 -19 401 17 593 88
252 94 417 210 547 382 123 163 215 378 251 587 32 188 17 524 -32 722 -10 38
2 27 44 -44z"/>
<path d="M4835 7254 c-304 -54 -529 -189 -695 -417 -66 -91 -68 -100 -32 -145
128 -161 379 -339 591 -419 72 -27 70 -33 30 72 -25 67 -32 216 -11 237 6 6
36 12 66 13 175 5 282 181 302 501 4 55 4 117 0 137 l-7 37 -82 -1 c-45 0
-118 -7 -162 -15z"/>
<path d="M3100 6379 c-162 -41 -237 -107 -248 -219 -5 -51 13 -136 30 -146 5
-4 25 8 43 26 27 26 32 37 25 51 -15 27 -12 77 6 115 21 44 79 94 174 150 83
48 80 51 -30 23z"/>
<path d="M2393 6319 c-64 -48 -104 -113 -106 -171 -2 -46 20 -111 35 -106 19
7 139 301 127 313 -3 2 -28 -14 -56 -36z"/>
<path d="M3865 6089 c-22 -5 -166 -13 -320 -19 -439 -15 -453 -20 -671 -262
-205 -227 -393 -448 -381 -448 2 0 62 38 133 85 145 96 236 145 278 148 44 3
67 -36 74 -123 3 -46 8 -67 13 -58 5 8 33 89 64 179 31 90 59 167 63 170 4 4
51 1 105 -7 104 -14 170 -8 228 21 49 26 108 94 126 146 16 45 20 49 49 49 41
0 294 108 294 125 0 6 -2 6 -55 -6z m-381 -125 c34 -13 -28 -108 -88 -135 -84
-38 -183 -18 -233 48 -30 39 -24 52 33 71 31 10 32 10 38 -28 11 -71 90 -104
134 -57 11 12 24 41 28 65 6 40 8 42 39 42 19 0 40 -3 49 -6z"/>
<path d="M3707 5845 c-23 -111 -119 -195 -260 -225 -40 -9 -40 -9 15 -6 108 8
199 68 237 157 12 28 21 65 19 82 -3 32 -3 32 -11 -8z"/>
</g>
</svg>
