<svg width="86.26428527832032px" height="104.11428527832031px" xmlns="http://www.w3.org/2000/svg" viewBox="206.86785736083985 22.942857360839845 86.26428527832032 104.11428527832031" style="background: none;" preserveAspectRatio="xMidYMid"><defs><linearGradient id="editing-glowing-gradient" x1="0.8146601955249186" x2="0.18533980447508142" y1="0.8885729807284856" y2="0.11142701927151444"><stop offset="0" stop-color="#fff"></stop><stop offset="1" stop-color="#fff"></stop></linearGradient><filter id="editing-glowing" x="-100%" y="-100%" width="300%" height="300%"><feGaussianBlur in="SourceGraphic" result="blur" stdDeviation="10"></feGaussianBlur><feMerge><feMergeNode in="blur"></feMergeNode><feMergeNode in="SourceGraphic"></feMergeNode></feMerge></filter></defs><g filter="url(#editing-glowing)"><g transform="translate(216.5049991607666, 102.28499984741211)"><path d="M24.57-54.57L24.57-54.57Q32.55-54.57 36.89-50.45L36.89-50.45L36.89-50.45Q41.23-46.33 41.23-38.59L41.23-38.59L41.23-38.59Q41.23-29.50 35.83-24.31L35.83-24.31L35.83-24.31Q30.43-19.13 20.91-19.13L20.91-19.13L14.45-19.13L14.45-17L14.79 0L7.91 0L8.33-16.41L7.91-54.49L24.57-54.57ZM23.46-24.65L23.46-24.65Q28.73-25.50 31.49-28.90L31.49-28.90L31.49-28.90Q34.26-32.30 34.26-38.00L34.26-38.00L34.26-38.00Q34.26-48.54 23.04-48.96L23.04-48.96L14.79-48.71L14.54-24.82L23.46-24.65ZM59.08-54.49L58.65-17L58.99 0L52.11 0L52.53-16.41L52.11-54.49L59.08-54.49Z" fill="url(#editing-glowing-gradient)"></path></g></g><style>text {
  font-size: 64px;
  font-family: Arial Black;
  dominant-baseline: central;
  text-anchor: middle;
}</style></svg>