<svg width="79.24287261962891px" height="95.42857208251952px" xmlns="http://www.w3.org/2000/svg" viewBox="210.37856369018556 27.28571395874024 79.24287261962891 95.42857208251952" style="background: rgba(0, 0, 0, 0);" preserveAspectRatio="xMidYMid"><defs><linearGradient id="editing-gradow-gradient" x1="0" x2="1" y1="0.5" y2="0.5" gradientUnits="objectBoundingBox"><stop offset="0" stop-color="#f0f"></stop><stop offset="1" stop-color="#0ff"></stop></linearGradient><filter id="editing-gradow-filter" x="-100%" y="-100%" width="300%" height="300%"><feFlood flood-color="#fffcd9" result="flood"></feFlood><feComposite operator="in" in2="SourceAlpha" in="flood" result="shadow"></feComposite><feOffset dx="-4" dy="-4" in="SourceGraphic" result="offset-1"></feOffset><feOffset dx="4" dy="4" in="shadow" result="offset-2"></feOffset><feMerge><feMergeNode in="offset-2"></feMergeNode><feMergeNode in="offset-1"></feMergeNode></feMerge></filter></defs><g filter="url(#editing-gradow-filter)"><g transform="translate(220.0550036430359, 99.39500045776367)"><path d="M21.96-48.79L21.96-48.79Q29.11-48.79 32.98-45.11L32.98-45.11L32.98-45.11Q36.86-41.42 36.86-34.50L36.86-34.50L36.86-34.50Q36.86-26.37 32.03-21.74L32.03-21.74L32.03-21.74Q27.21-17.10 18.70-17.10L18.70-17.10L12.92-17.10L12.92-15.20L13.22 0L7.07 0L7.45-14.67L7.07-48.72L21.96-48.79ZM20.98-22.04L20.98-22.04Q25.69-22.80 28.16-25.84L28.16-25.84L28.16-25.84Q30.63-28.88 30.63-33.97L30.63-33.97L30.63-33.97Q30.63-43.40 20.60-43.78L20.60-43.78L13.22-43.55L13.00-22.19L20.98-22.04ZM52.82-48.72L52.44-15.20L52.74 0L46.59 0L46.97-14.67L46.59-48.72L52.82-48.72Z" fill="url(#editing-gradow-gradient)"></path></g></g><style>text {
  font-size: 64px;
  font-family: Arial Black;
  dominant-baseline: central;
  text-anchor: middle;
}</style></svg>