<svg width="653.9214599609375px" height="109.60000610351562px" xmlns="http://www.w3.org/2000/svg" viewBox="-76.96072998046873 20.199996948242188 653.9214599609375 109.60000610351562" style="background: none;" preserveAspectRatio="xMidYMid"><defs><linearGradient id="editing-sticker-gradient" x1="0.5" y1="0.2" x2="0.5" y2="0.8"><stop offset="0" stop-color="#88a2ce"></stop><stop offset="1" stop-color="#edd79c"></stop></linearGradient><filter id="editing-sticker" x="-100%" y="-100%" width="300%" height="300%"><feMorphology operator="erode" radius="1" in="SourceAlpha" result="alpha-erode"></feMorphology><feConvolveMatrix order="3,3" divisor="1" kernelMatrix="0 1 0 1 1 1 0 1 0" in="alpha-erode" result="alpha-round"></feConvolveMatrix><feMorphology operator="dilate" radius="3.5" in="alpha-round" result="dilate-shadow"></feMorphology><feGaussianBlur in="dilate-shadow" stdDeviation="1.5" result="shadow"></feGaussianBlur><feFlood flood-color="#fff" result="flood-sticker"></feFlood><feComposite operator="in" in="flood-sticker" in2="alpha-round" result="comp-sticker"></feComposite><feMorphology operator="dilate" radius="3" in="comp-sticker" result="morph-sticker"></feMorphology><feConvolveMatrix order="3,3" divisor="1" kernelMatrix="0 1 0 1 1 1 0 1 0" in="morph-sticker" result="sticker"></feConvolveMatrix><feMerge><feMergeNode in="shadow"></feMergeNode><feMergeNode in="sticker"></feMergeNode><feMergeNode in="SourceGraphic"></feMergeNode></feMerge></filter></defs><g filter="url(#editing-sticker)"><g transform="translate(-52.72999572753906, 106.6250057220459)"><path d="M24.57-54.57L24.57-54.57Q32.55-54.57 36.89-50.45L36.89-50.45L36.89-50.45Q41.23-46.33 41.23-38.59L41.23-38.59L41.23-38.59Q41.23-29.50 35.83-24.31L35.83-24.31L35.83-24.31Q30.43-19.13 20.91-19.13L20.91-19.13L14.45-19.13L14.45-17L14.79 0L7.91 0L8.33-16.41L7.91-54.49L24.57-54.57ZM23.46-24.65L23.46-24.65Q28.73-25.50 31.49-28.90L31.49-28.90L31.49-28.90Q34.26-32.30 34.26-38.00L34.26-38.00L34.26-38.00Q34.26-48.54 23.04-48.96L23.04-48.96L14.79-48.71L14.54-24.82L23.46-24.65ZM71.31-17.09L71.31-17.09Q76.50-9.18 82.79-1.53L82.79-1.53L82.71-0.68L82.71-0.68Q79.14 0.43 76.84 0.60L76.84 0.60L75.74-0.09L75.74-0.09Q69.28-9.86 65.96-15.47L65.96-15.47L57.97-15.39L57.97-13.26L58.14 0L51.85 0L52.11-12.75L51.85-42.33L66.30-42.42L66.30-42.42Q73.02-42.42 76.63-39.27L76.63-39.27L76.63-39.27Q80.24-36.13 80.24-30.18L80.24-30.18L80.24-30.18Q80.24-25.84 77.90-22.44L77.90-22.44L77.90-22.44Q75.56-19.04 71.31-17.09L71.31-17.09ZM58.14-37.23L58.06-20.66L66.05-20.40L66.05-20.40Q73.61-22.53 73.61-29.67L73.61-29.67L73.61-29.67Q73.61-33.41 71.40-35.28L71.40-35.28L71.40-35.28Q69.19-37.15 64.69-37.32L64.69-37.32L58.14-37.23ZM109.82-42.84L109.82-42.84Q119.09-42.84 124.06-37.40L124.06-37.40L124.06-37.40Q129.03-31.96 129.03-22.02L129.03-22.02L129.03-22.02Q129.03-11.22 123.72-5.31L123.72-5.31L123.72-5.31Q118.41 0.60 108.55 0.60L108.55 0.60L108.55 0.60Q99.37 0.60 94.35-4.97L94.35-4.97L94.35-4.97Q89.34-10.54 89.34-20.83L89.34-20.83L89.34-20.83Q89.34-31.37 94.69-37.10L94.69-37.10L94.69-37.10Q100.05-42.84 109.82-42.84L109.82-42.84ZM109.23-37.48L109.23-37.48Q102.51-37.48 99.24-33.66L99.24-33.66L99.24-33.66Q95.97-29.84 95.97-21.59L95.97-21.59L95.97-21.59Q95.97-12.75 99.20-8.76L99.20-8.76L99.20-8.76Q102.43-4.76 109.06-4.76L109.06-4.76L109.06-4.76Q115.86-4.76 119.17-8.67L119.17-8.67L119.17-8.67Q122.49-12.58 122.49-20.91L122.49-20.91L122.49-20.91Q122.49-29.50 119.21-33.49L119.21-33.49L119.21-33.49Q115.94-37.48 109.23-37.48L109.23-37.48ZM154.11-37.23L146.37-37.15L146.29-23.21L153.60-23.12L161.08-23.38L161.50-22.78L161.08-17.94L153.00-18.02L146.20-17.94L146.20-13.26L146.37 0L140.08 0L140.25-12.75L140.08-42.33L164.73-42.33L165.07-41.82L164.56-36.89L154.11-37.23ZM187.94-5.10L199.24-5.44L199.75-4.93L199.16 0L173.40 0L173.66-12.75L173.40-42.33L199.33-42.33L199.75-41.82L199.24-36.89L188.53-37.23L179.69-37.15L179.61-24.31L188.02-24.23L195.42-24.48L195.84-23.89L195.33-18.87L187.51-19.13L179.61-19.04L179.52-13.26L179.61-5.19L187.94-5.10ZM222.87-42.76L222.87-42.76Q228.06-42.76 233.24-40.72L233.24-40.72L232.14-34.43L231.12-34.17L231.12-34.17Q228.74-36.04 226.61-36.93L226.61-36.93L226.61-36.93Q224.49-37.83 222.19-37.83L222.19-37.83L222.19-37.83Q218.54-37.83 216.41-35.91L216.41-35.91L216.41-35.91Q214.29-34 214.29-31.54L214.29-31.54L214.29-31.54Q214.29-29.07 216.37-27.54L216.37-27.54L216.37-27.54Q218.45-26.01 222.79-24.14L222.79-24.14L222.79-24.14Q226.61-22.44 228.86-21.08L228.86-21.08L228.86-21.08Q231.12-19.72 232.77-17.47L232.77-17.47L232.77-17.47Q234.43-15.22 234.43-11.99L234.43-11.99L234.43-11.99Q234.43-8.67 232.65-5.82L232.65-5.82L232.65-5.82Q230.86-2.98 227.42-1.23L227.42-1.23L227.42-1.23Q223.98 0.51 219.22 0.51L219.22 0.51L219.22 0.51Q216.24 0.51 212.97-0.21L212.97-0.21L212.97-0.21Q209.70-0.94 206.89-2.38L206.89-2.38L207.66-9.10L208.51-9.44L208.51-9.44Q210.89-7.06 214.07-5.74L214.07-5.74L214.07-5.74Q217.26-4.42 219.98-4.42L219.98-4.42L219.98-4.42Q223.55-4.42 225.85-6.33L225.85-6.33L225.85-6.33Q228.14-8.25 228.14-10.97L228.14-10.97L228.14-10.97Q228.14-13.52 226.06-15.05L226.06-15.05L226.06-15.05Q223.98-16.58 219.56-18.62L219.56-18.62L219.56-18.62Q215.90-20.23 213.56-21.59L213.56-21.59L213.56-21.59Q211.23-22.95 209.61-25.20L209.61-25.20L209.61-25.20Q208.00-27.46 208.00-30.69L208.00-30.69L208.00-30.69Q208.00-34.09 209.82-36.80L209.82-36.80L209.82-36.80Q211.65-39.53 215.01-41.14L215.01-41.14L215.01-41.14Q218.37-42.76 222.87-42.76L222.87-42.76ZM259.00-42.76L259.00-42.76Q264.18-42.76 269.37-40.72L269.37-40.72L268.26-34.43L267.24-34.17L267.24-34.17Q264.86-36.04 262.74-36.93L262.74-36.93L262.74-36.93Q260.61-37.83 258.31-37.83L258.31-37.83L258.31-37.83Q254.66-37.83 252.54-35.91L252.54-35.91L252.54-35.91Q250.41-34 250.41-31.54L250.41-31.54L250.41-31.54Q250.41-29.07 252.49-27.54L252.49-27.54L252.49-27.54Q254.58-26.01 258.91-24.14L258.91-24.14L258.91-24.14Q262.74-22.44 264.99-21.08L264.99-21.08L264.99-21.08Q267.24-19.72 268.90-17.47L268.90-17.47L268.90-17.47Q270.56-15.22 270.56-11.99L270.56-11.99L270.56-11.99Q270.56-8.67 268.77-5.82L268.77-5.82L268.77-5.82Q266.99-2.98 263.54-1.23L263.54-1.23L263.54-1.23Q260.10 0.51 255.34 0.51L255.34 0.51L255.34 0.51Q252.37 0.51 249.09-0.21L249.09-0.21L249.09-0.21Q245.82-0.94 243.02-2.38L243.02-2.38L243.78-9.10L244.63-9.44L244.63-9.44Q247.01-7.06 250.20-5.74L250.20-5.74L250.20-5.74Q253.39-4.42 256.11-4.42L256.11-4.42L256.11-4.42Q259.68-4.42 261.97-6.33L261.97-6.33L261.97-6.33Q264.27-8.25 264.27-10.97L264.27-10.97L264.27-10.97Q264.27-13.52 262.18-15.05L262.18-15.05L262.18-15.05Q260.10-16.58 255.68-18.62L255.68-18.62L255.68-18.62Q252.03-20.23 249.69-21.59L249.69-21.59L249.69-21.59Q247.35-22.95 245.74-25.20L245.74-25.20L245.74-25.20Q244.12-27.46 244.12-30.69L244.12-30.69L244.12-30.69Q244.12-34.09 245.95-36.80L245.95-36.80L245.95-36.80Q247.78-39.53 251.13-41.14L251.13-41.14L251.13-41.14Q254.49-42.76 259.00-42.76L259.00-42.76ZM299.29-42.84L299.29-42.84Q308.55-42.84 313.52-37.40L313.52-37.40L313.52-37.40Q318.50-31.96 318.50-22.02L318.50-22.02L318.50-22.02Q318.50-11.22 313.18-5.31L313.18-5.31L313.18-5.31Q307.87 0.60 298.01 0.60L298.01 0.60L298.01 0.60Q288.83 0.60 283.81-4.97L283.81-4.97L283.81-4.97Q278.80-10.54 278.80-20.83L278.80-20.83L278.80-20.83Q278.80-31.37 284.16-37.10L284.16-37.10L284.16-37.10Q289.51-42.84 299.29-42.84L299.29-42.84ZM298.69-37.48L298.69-37.48Q291.98-37.48 288.70-33.66L288.70-33.66L288.70-33.66Q285.43-29.84 285.43-21.59L285.43-21.59L285.43-21.59Q285.43-12.75 288.66-8.76L288.66-8.76L288.66-8.76Q291.89-4.76 298.52-4.76L298.52-4.76L298.52-4.76Q305.32-4.76 308.64-8.67L308.64-8.67L308.64-8.67Q311.95-12.58 311.95-20.91L311.95-20.91L311.95-20.91Q311.95-29.50 308.68-33.49L308.68-33.49L308.68-33.49Q305.41-37.48 298.69-37.48L298.69-37.48ZM349.44-17.09L349.44-17.09Q354.62-9.18 360.91-1.53L360.91-1.53L360.83-0.68L360.83-0.68Q357.26 0.43 354.96 0.60L354.96 0.60L353.86-0.09L353.86-0.09Q347.40-9.86 344.08-15.47L344.08-15.47L336.09-15.39L336.09-13.26L336.26 0L329.97 0L330.23-12.75L329.97-42.33L344.42-42.42L344.42-42.42Q351.14-42.42 354.75-39.27L354.75-39.27L354.75-39.27Q358.36-36.13 358.36-30.18L358.36-30.18L358.36-30.18Q358.36-25.84 356.02-22.44L356.02-22.44L356.02-22.44Q353.69-19.04 349.44-17.09L349.44-17.09ZM336.26-37.23L336.18-20.66L344.17-20.40L344.17-20.40Q351.73-22.53 351.73-29.67L351.73-29.67L351.73-29.67Q351.73-33.41 349.52-35.28L349.52-35.28L349.52-35.28Q347.31-37.15 342.81-37.32L342.81-37.32L336.26-37.23ZM393.38-54.49L392.96-17L393.30 0L386.41 0L386.84-16.41L386.41-54.49L393.38-54.49ZM444.30-42.50L444.04-12.67L444.13 0L437.33 0L415.06-32.30L414.63-32.30L414.55-14.11L414.72 0L408.94 0L409.19-12.50L409.02-42.33L415.74-42.33L438.01-10.03L438.60-10.03L438.43-42.08L444.30-42.50ZM470.48-47.52L469.71-47.60L467.84-50.32L467.84-50.32Q476.17-57.12 481.78-62.65L481.78-62.65L482.55-62.56L485.10-58.99L484.93-58.31L484.93-58.31Q476.51-51.77 470.48-47.52L470.48-47.52ZM477.70-42.33L492.58 0L486.20 0L485.18-4.59L482.97-10.88L472.86-10.97L463.85-10.88L461.55-4.93L460.36 0L454.07 0L470.39-42.33L477.70-42.33ZM473.37-15.98L481.19-16.07L474.13-36.13L473.62-36.13L465.89-16.07L473.37-15.98ZM518.42-42.76L518.42-42.76Q525.47-42.76 530.66-39.78L530.66-39.78L529.47-33.91L528.70-33.66L528.70-33.66Q526.58-35.45 523.77-36.47L523.77-36.47L523.77-36.47Q520.97-37.48 517.74-37.48L517.74-37.48L517.74-37.48Q511.45-37.48 508.13-33.45L508.13-33.45L508.13-33.45Q504.82-29.41 504.82-21.42L504.82-21.42L504.82-21.42Q504.82-13.35 508.13-9.10L508.13-9.10L508.13-9.10Q511.45-4.85 517.74-4.85L517.74-4.85L517.74-4.85Q520.80-4.85 523.90-5.91L523.90-5.91L523.90-5.91Q527.00-6.97 529.47-8.76L529.47-8.76L530.23-8.50L529.64-2.64L529.64-2.64Q523.86 0.51 517.48 0.51L517.48 0.51L517.48 0.51Q508.13 0.51 503.12-5.06L503.12-5.06L503.12-5.06Q498.10-10.63 498.10-20.91L498.10-20.91L498.10-20.91Q498.10-31.37 503.41-37.06L503.41-37.06L503.41-37.06Q508.73-42.76 518.42-42.76L518.42-42.76ZM547.49-42.33L547.23-13.26L547.40 0L541.11 0L541.37-12.75L541.11-42.33L547.49-42.33ZM578.34-42.84L578.34-42.84Q587.61-42.84 592.58-37.40L592.58-37.40L592.58-37.40Q597.55-31.96 597.55-22.02L597.55-22.02L597.55-22.02Q597.55-11.22 592.24-5.31L592.24-5.31L592.24-5.31Q586.92 0.60 577.06 0.60L577.06 0.60L577.06 0.60Q567.88 0.60 562.87-4.97L562.87-4.97L562.87-4.97Q557.86-10.54 557.86-20.83L557.86-20.83L557.86-20.83Q557.86-31.37 563.21-37.10L563.21-37.10L563.21-37.10Q568.56-42.84 578.34-42.84L578.34-42.84ZM577.75-37.48L577.75-37.48Q571.03-37.48 567.76-33.66L567.76-33.66L567.76-33.66Q564.49-29.84 564.49-21.59L564.49-21.59L564.49-21.59Q564.49-12.75 567.71-8.76L567.71-8.76L567.71-8.76Q570.94-4.76 577.57-4.76L577.57-4.76L577.57-4.76Q584.38-4.76 587.69-8.67L587.69-8.67L587.69-8.67Q591.00-12.58 591.00-20.91L591.00-20.91L591.00-20.91Q591.00-29.50 587.73-33.49L587.73-33.49L587.73-33.49Q584.46-37.48 577.75-37.48L577.75-37.48Z" fill="url(#editing-sticker-gradient)" stroke="#fefefe" stroke-width="2.5"></path></g></g><style>text {
  font-size: 64px;
  font-family: Arial Black;
  dominant-baseline: central;
  text-anchor: middle;
}</style></svg>